<svg id="XPO.icons"><symbol viewBox="0 0 48 48" id="XPO.iconapps"> <path d="M8 16h8V8H8v8zm12 24h8v-8h-8v8zM8 40h8v-8H8v8zm0-12h8v-8H8v8zm12 0h8v-8h-8v8zM32 8v8h8V8h-8zm-12 8h8V8h-8v8zm12 12h8v-8h-8v8zm0 12h8v-8h-8v8z"/> <path d="M0 0h48v48H0z" fill="none"/> </symbol><symbol viewBox="0 0 48 48" id="XPO.iconarrowback"> <path d="M0 0h48v48H0z" fill="none"/> <path d="M40 22H15.66l11.17-11.17L24 8 8 24l16 16 2.83-2.83L15.66 26H40v-4z"/> </symbol><symbol viewBox="0 0 48 48" id="XPO.iconbattery20"> <path d="M0 0h48v48H0z" fill="none"/> <path d="M14 34v7.33C14 42.8 15.19 44 16.67 44h14.67c1.47 0 2.67-1.19 2.67-2.67V34H14z"/> <path fill-opacity=".3" d="M34 10.67C34 9.19 32.81 8 31.33 8H28V4h-8v4h-3.33C15.19 8 14 9.19 14 10.67V34h20V10.67z"/> </symbol><symbol viewBox="0 0 48 48" id="XPO.iconbattery30"> <path d="M0 0h48v48H0z" fill="none"/> <path fill-opacity=".3" d="M34 10.67C34 9.19 32.81 8 31.33 8H28V4h-8v4h-3.33C15.19 8 14 9.19 14 10.67V30h20V10.67z"/> <path d="M14 30v11.33C14 42.8 15.19 44 16.67 44h14.67c1.47 0 2.67-1.19 2.67-2.67V30H14z"/> </symbol><symbol viewBox="0 0 48 48" id="XPO.iconbattery50"> <path d="M0 0h48v48H0z" fill="none"/> <path fill-opacity=".3" d="M34 10.67C34 9.19 32.81 8 31.33 8H28V4h-8v4h-3.33C15.19 8 14 9.19 14 10.67V26h20V10.67z"/> <path d="M14 26v15.33C14 42.8 15.19 44 16.67 44h14.67c1.47 0 2.67-1.19 2.67-2.67V26H14z"/> </symbol><symbol viewBox="0 0 48 48" id="XPO.iconbattery60"> <path d="M0 0h48v48H0z" fill="none"/> <path fill-opacity=".3" d="M34 10.67C34 9.19 32.81 8 31.33 8H28V4h-8v4h-3.33C15.19 8 14 9.19 14 10.67V22h20V10.67z"/> <path d="M14 22v19.33C14 42.8 15.19 44 16.67 44h14.67c1.47 0 2.67-1.19 2.67-2.67V22H14z"/> </symbol><symbol viewBox="0 0 48 48" id="XPO.iconbattery80"> <path d="M0 0h48v48H0z" fill="none"/> <path fill-opacity=".3" d="M34 10.67C34 9.19 32.81 8 31.33 8H28V4h-8v4h-3.33C15.19 8 14 9.19 14 10.67V18h20v-7.33z"/> <path d="M14 18v23.33C14 42.8 15.19 44 16.67 44h14.67c1.47 0 2.67-1.19 2.67-2.67V18H14z"/> </symbol><symbol viewBox="0 0 48 48" id="XPO.iconbattery90"> <path d="M0 0h48v48H0z" fill="none"/> <path fill-opacity=".3" d="M34 10.67C34 9.19 32.81 8 31.33 8H28V4h-8v4h-3.33C15.19 8 14 9.19 14 10.67V16h20v-5.33z"/> <path d="M14 16v25.33C14 42.8 15.19 44 16.67 44h14.67c1.47 0 2.67-1.19 2.67-2.67V16H14z"/> </symbol><symbol viewBox="0 0 48 48" id="XPO.iconbatteryalert"> <path d="M0 0h48v48H0z" fill="none"/> <path d="M31.33 8H28V4h-8v4h-3.33C15.19 8 14 9.19 14 10.67v30.67c0 1.47 1.19 2.67 2.67 2.67h14.67c1.47 0 2.67-1.19 2.67-2.67V10.67C34 9.19 32.81 8 31.33 8zM26 36h-4v-4h4v4zm0-8h-4V18h4v10z"/> </symbol><symbol viewBox="0 0 48 48" id="XPO.iconbatterycharging20"> <path d="M22 40v-6h-8v7.33C14 42.8 15.19 44 16.67 44h14.67c1.47 0 2.67-1.19 2.67-2.67V34h-8.8L22 40z"/> <path fill-opacity=".3" d="M31.33 8H28V4h-8v4h-3.33C15.19 8 14 9.19 14 10.67V34h8v-5h-4l8-15v11h4l-4.8 9H34V10.67C34 9.19 32.81 8 31.33 8z"/> <path d="M0 0h48v48H0z" fill="none"/> </symbol><symbol viewBox="0 0 48 48" id="XPO.iconbatterycharging30"> <path fill-opacity=".3" d="M31.33 8H28V4h-8v4h-3.33C15.19 8 14 9.19 14 10.67V29h4l8-15v11h4l-2.13 4H34V10.67C34 9.19 32.81 8 31.33 8z"/> <path d="M22 40V29h-8v12.33C14 42.8 15.19 44 16.67 44h14.67c1.47 0 2.67-1.19 2.67-2.67V29h-6.13L22 40z"/> <path d="M0 0h48v48H0z" fill="none"/> </symbol><symbol viewBox="0 0 48 48" id="XPO.iconbatterycharging50"> <path d="M0 0h48v48H0zm18 29h4v11l6.93-13h-9.86zm8-4V14l-5.87 11-1.06 2h9.86L30 25z" fill="none"/> <path d="M28.93 27L22 40V29h-4l1.07-2H14v14.33C14 42.8 15.19 44 16.67 44h14.67c1.47 0 2.67-1.19 2.67-2.67V27h-5.08z"/> <path fill-opacity=".3" d="M31.33 8H28V4h-8v4h-3.33C15.19 8 14 9.19 14 10.67V27h5.07L26 14v11h4l-1.07 2H34V10.67C34 9.19 32.81 8 31.33 8z"/> </symbol><symbol viewBox="0 0 48 48" id="XPO.iconbatterycharging60"> <path fill-opacity=".3" d="M31.33 8H28V4h-8v4h-3.33C15.19 8 14 9.19 14 10.67V22h7.73L26 14v8h8V10.67C34 9.19 32.81 8 31.33 8z"/> <path d="M26 25h4l-8 15V29h-4l3.73-7H14v19.33C14 42.8 15.19 44 16.67 44h14.67c1.47 0 2.67-1.19 2.67-2.67V22h-8v3z"/> <path d="M0 0h48v48H0z" fill="none"/> </symbol><symbol viewBox="0 0 48 48" id="XPO.iconbatterycharging80"> <path fill-opacity=".3" d="M31.33 8H28V4h-8v4h-3.33C15.19 8 14 9.19 14 10.67V18h9.87L26 14v4h8v-7.33C34 9.19 32.81 8 31.33 8z"/> <path d="M26 25h4l-8 15V29h-4l5.87-11H14v23.33C14 42.8 15.19 44 16.67 44h14.67c1.47 0 2.67-1.19 2.67-2.67V18h-8v7z"/> <path d="M0 0h48v48H0z" fill="none"/> </symbol><symbol viewBox="0 0 48 48" id="XPO.iconbatterycharging90"> <path fill-opacity=".3" d="M31.33 8H28V4h-8v4h-3.33C15.19 8 14 9.19 14 10.67V16h10.93L26 14v2h8v-5.33C34 9.19 32.81 8 31.33 8z"/> <path d="M26 25h4l-8 15V29h-4l6.93-13H14v25.33C14 42.8 15.19 44 16.67 44h14.67c1.47 0 2.67-1.19 2.67-2.67V16h-8v9z"/> <path d="M0 0h48v48H0z" fill="none"/> </symbol><symbol viewBox="0 0 48 48" id="XPO.iconbatterychargingfull"> <path d="M0 0h48v48H0z" fill="none"/> <path d="M31.33 8H28V4h-8v4h-3.33C15.19 8 14 9.19 14 10.67v30.67c0 1.47 1.19 2.67 2.67 2.67h14.67c1.47 0 2.67-1.19 2.67-2.67V10.67C34 9.19 32.81 8 31.33 8zM22 40V29h-4l8-15v11h4l-8 15z"/> </symbol><symbol viewBox="0 0 48 48" id="XPO.iconbatteryfull"> <path d="M0 0h48v48H0z" fill="none"/> <path d="M31.33 8H28V4h-8v4h-3.33C15.19 8 14 9.19 14 10.67v30.67c0 1.47 1.19 2.67 2.67 2.67h14.67c1.47 0 2.67-1.19 2.67-2.67V10.67C34 9.19 32.81 8 31.33 8z"/> </symbol><symbol viewBox="0 0 48 48" id="XPO.iconbatteryunknown"> <path d="M0 0h48v48H0z" fill="none"/> <path d="M31.33 8H28V4h-8v4h-3.33C15.19 8 14 9.19 14 10.67v30.67c0 1.47 1.19 2.67 2.67 2.67h14.67c1.47 0 2.67-1.19 2.67-2.67V10.67C34 9.19 32.81 8 31.33 8zM25.9 35.9h-3.8v-3.8h3.8v3.8zm2.7-10.52s-.76.84-1.34 1.42c-.97.97-1.66 2.29-1.66 3.2h-3.2c0-1.66.92-3.05 1.86-3.99l1.86-1.89c.54-.54.88-1.29.88-2.12 0-1.66-1.34-3-3-3s-3 1.34-3 3h-3c0-3.31 2.69-6 6-6s6 2.69 6 6c0 1.32-.53 2.52-1.4 3.38z"/> </symbol><symbol viewBox="0 0 48 48" id="XPO.iconbluetooth"> <path d="M0 0h48v48H0z" fill="none"/> <path d="M35.41 15.41L24 4h-2v15.17L12.83 10 10 12.83 21.17 24 10 35.17 12.83 38 22 28.83V44h2l11.41-11.41L26.83 24l8.58-8.59zM26 11.66l3.76 3.76L26 19.17v-7.51zm3.76 20.93L26 36.34v-7.52l3.76 3.77z"/> </symbol><symbol viewBox="0 0 48 48" id="XPO.iconbluron"> <path d="M12 26c-1.1 0-2 .9-2 2s.9 2 2 2 2-.9 2-2-.9-2-2-2zm0 8c-1.1 0-2 .9-2 2s.9 2 2 2 2-.9 2-2-.9-2-2-2zm0-16c-1.1 0-2 .9-2 2s.9 2 2 2 2-.9 2-2-.9-2-2-2zm-6 1c-.55 0-1 .45-1 1s.45 1 1 1 1-.45 1-1-.45-1-1-1zm6-9c-1.1 0-2 .9-2 2s.9 2 2 2 2-.9 2-2-.9-2-2-2zm30 11c.55 0 1-.45 1-1s-.45-1-1-1-1 .45-1 1 .45 1 1 1zm-14-7c1.1 0 2-.9 2-2s-.9-2-2-2-2 .9-2 2 .9 2 2 2zm0-7c.55 0 1-.45 1-1s-.45-1-1-1-1 .45-1 1 .45 1 1 1zM6 27c-.55 0-1 .45-1 1s.45 1 1 1 1-.45 1-1-.45-1-1-1zm14 14c-.55 0-1 .45-1 1s.45 1 1 1 1-.45 1-1-.45-1-1-1zm0-34c.55 0 1-.45 1-1s-.45-1-1-1-1 .45-1 1 .45 1 1 1zm0 7c1.1 0 2-.9 2-2s-.9-2-2-2-2 .9-2 2 .9 2 2 2zm0 11c-1.66 0-3 1.34-3 3s1.34 3 3 3 3-1.34 3-3-1.34-3-3-3zm16 1c-1.1 0-2 .9-2 2s.9 2 2 2 2-.9 2-2-.9-2-2-2zm0 8c-1.1 0-2 .9-2 2s.9 2 2 2 2-.9 2-2-.9-2-2-2zm0-16c-1.1 0-2 .9-2 2s.9 2 2 2 2-.9 2-2-.9-2-2-2zm0-8c-1.1 0-2 .9-2 2s.9 2 2 2 2-.9 2-2-.9-2-2-2zm6 17c-.55 0-1 .45-1 1s.45 1 1 1 1-.45 1-1-.45-1-1-1zm-14 7c-1.1 0-2 .9-2 2s.9 2 2 2 2-.9 2-2-.9-2-2-2zm0 7c-.55 0-1 .45-1 1s.45 1 1 1 1-.45 1-1-.45-1-1-1zm-8-24c-1.66 0-3 1.34-3 3s1.34 3 3 3 3-1.34 3-3-1.34-3-3-3zm0 17c-1.1 0-2 .9-2 2s.9 2 2 2 2-.9 2-2-.9-2-2-2zm8-9c-1.66 0-3 1.34-3 3s1.34 3 3 3 3-1.34 3-3-1.34-3-3-3zm0-8c-1.66 0-3 1.34-3 3s1.34 3 3 3 3-1.34 3-3-1.34-3-3-3z"/> <path d="M0 0h48v48H0z" fill="none"/> </symbol><symbol viewBox="0 0 48 48" id="XPO.iconbrightness7"> <path d="M0 0h48v48H0z" fill="none"/> <path d="M40 17.37V8h-9.37L24 1.37 17.37 8H8v9.37L1.37 24 8 30.63V40h9.37L24 46.63 30.63 40H40v-9.37L46.63 24 40 17.37zM24 36c-6.63 0-12-5.37-12-12s5.37-12 12-12 12 5.37 12 12-5.37 12-12 12zm0-20c-4.42 0-8 3.58-8 8s3.58 8 8 8 8-3.58 8-8-3.58-8-8-8z"/> </symbol><symbol viewBox="0 0 48 48" id="XPO.iconbugreport"> <path d="M0 0h48v48H0z" fill="none"/> <path d="M40 16h-5.62c-.9-1.56-2.14-2.91-3.63-3.92L34 8.83 31.17 6l-4.35 4.35c-.9-.22-1.85-.35-2.82-.35-.97 0-1.92.13-2.82.35L16.83 6 14 8.83l3.25 3.25c-1.49 1.01-2.73 2.36-3.63 3.92H8v4h4.18c-.11.65-.18 1.32-.18 2v2H8v4h4v2c0 .68.07 1.35.18 2H8v4h5.62c2.07 3.58 5.94 6 10.38 6s8.31-2.42 10.38-6H40v-4h-4.18c.11-.65.18-1.32.18-2v-2h4v-4h-4v-2c0-.68-.07-1.35-.18-2H40v-4zM28 32h-8v-4h8v4zm0-8h-8v-4h8v4z"/> </symbol><symbol viewBox="0 0 48 48" id="XPO.iconclose"> <path d="M38 12.83L35.17 10 24 21.17 12.83 10 10 12.83 21.17 24 10 35.17 12.83 38 24 26.83 35.17 38 38 35.17 26.83 24z"/> <path d="M0 0h48v48H0z" fill="none"/> </symbol><symbol viewBox="0 0 48 48" id="XPO.icondaterange"> <path d="M18 22h-4v4h4v-4zm8 0h-4v4h4v-4zm8 0h-4v4h4v-4zm4-14h-2V4h-4v4H16V4h-4v4h-2c-2.22 0-3.98 1.8-3.98 4L6 40c0 2.2 1.78 4 4 4h28c2.2 0 4-1.8 4-4V12c0-2.2-1.8-4-4-4zm0 32H10V18h28v22z"/> <path fill="none" d="M0 0h48v48H0z"/> </symbol><symbol viewBox="0 0 48 48" id="XPO.icondone"> <path d="M0 0h48v48H0z" fill="none"/> <path d="M18 32.34L9.66 24l-2.83 2.83L18 38l24-24-2.83-2.83z"/> </symbol><symbol viewBox="0 0 48 48" id="XPO.iconfeaturedplaylist"> <path fill="none" d="M0 0h48v48H0V0z"/> <path d="M42 6H6c-2.2 0-4 1.8-4 4v28c0 2.2 1.8 4 4 4h36c2.2 0 4-1.8 4-4V10c0-2.2-1.8-4-4-4zM24 22H6v-4h18v4zm0-8H6v-4h18v4z"/> </symbol><symbol viewBox="0 0 48 48" id="XPO.iconformatsize"> <path d="M0 0h48v48H0z" fill="none"/> <path d="M18 8v6h10v24h6V14h10V8H18zM6 24h6v14h6V24h6v-6H6v6z"/> </symbol><symbol viewBox="0 0 48 48" id="XPO.iconhelp"> <path d="M0 0h48v48H0z" fill="none"/> <path d="M24 4C12.95 4 4 12.95 4 24s8.95 20 20 20 20-8.95 20-20S35.05 4 24 4zm2 34h-4v-4h4v4zm4.13-15.49l-1.79 1.84C26.9 25.79 26 27 26 30h-4v-1c0-2.21.9-4.21 2.34-5.66l2.49-2.52C27.55 20.1 28 19.1 28 18c0-2.21-1.79-4-4-4s-4 1.79-4 4h-4c0-4.42 3.58-8 8-8s8 3.58 8 8c0 1.76-.71 3.35-1.87 4.51z"/> </symbol><symbol viewBox="0 0 48 48" id="XPO.iconmemory"> <path d="M0 0h48v48H0z" fill="none"/> <path d="M30 18H18v12h12V18zm-4 8h-4v-4h4v4zm16-4v-4h-4v-4c0-2.21-1.79-4-4-4h-4V6h-4v4h-4V6h-4v4h-4c-2.21 0-4 1.79-4 4v4H6v4h4v4H6v4h4v4c0 2.21 1.79 4 4 4h4v4h4v-4h4v4h4v-4h4c2.21 0 4-1.79 4-4v-4h4v-4h-4v-4h4zm-8 12H14V14h20v20z"/> </symbol><symbol viewBox="0 0 48 48" id="XPO.iconmorevert"> <path d="M0 0h48v48H0z" fill="none"/> <path d="M24 16c2.21 0 4-1.79 4-4s-1.79-4-4-4-4 1.79-4 4 1.79 4 4 4zm0 4c-2.21 0-4 1.79-4 4s1.79 4 4 4 4-1.79 4-4-1.79-4-4-4zm0 12c-2.21 0-4 1.79-4 4s1.79 4 4 4 4-1.79 4-4-1.79-4-4-4z"/> </symbol><symbol viewBox="0 0 48 48" id="XPO.iconmudeer"> <path d="m24 1.082a22.92 22.92 0 0 0-22.92 22.92 22.92 22.92 0 0 0 22.92 22.92 22.92 22.92 0 0 0 22.92-22.92 22.92 22.92 0 0 0-22.92-22.92zm0 11.09h0.001953a11.83 11.83 0 0 1 11.82 11.83 11.83 11.83 0 0 1-0.668 3.916h-12.41v-8.154h-3.332l0.01367 1.234 1.971-0.02539 0.06445 6.973-2.047-0.02344 0.01953 1.186h3.311v-0.001954h11.92l0.5137-1.182h2.268v-8.16h3.996 1.246v9.342h-3.996-1.244-2.783a11.83 11.83 0 0 1-10.67 6.723 11.83 11.83 0 0 1-11.83-11.83 11.83 11.83 0 0 1 11.82-11.83zm-13.87 7.588v9.342h-5.928l5.928-9.342zm4.875 0v6.342h1.244v-6.342h-1.244zm23.68 1.109v7.053h2.707l0.03906-7.053h-2.746zm-23.68 5.568v1.168h1.244v-1.168h-1.244zm0 1.482v1.168h1.244v-1.168h-1.244z"/> </symbol><symbol viewBox="0 0 48 48" id="XPO.iconplayarrow"> <path d="M-838-2232H562v3600H-838z" fill="none"/> <path d="M16 10v28l22-14z"/> <path d="M0 0h48v48H0z" fill="none"/> </symbol><symbol viewBox="0 0 48 48" id="XPO.iconsearch"> <path d="M31 28h-1.59l-.55-.55C30.82 25.18 32 22.23 32 19c0-7.18-5.82-13-13-13S6 11.82 6 19s5.82 13 13 13c3.23 0 6.18-1.18 8.45-3.13l.55.55V31l10 9.98L40.98 38 31 28zm-12 0c-4.97 0-9-4.03-9-9s4.03-9 9-9 9 4.03 9 9-4.03 9-9 9z"/> <path d="M0 0h48v48H0z" fill="none"/> </symbol><symbol viewBox="0 0 48 48" id="XPO.iconsettings"> <path d="M0 0h48v48H0z" fill="none"/> <path d="M38.86 25.95c.08-.64.14-1.29.14-1.95s-.06-1.31-.14-1.95l4.23-3.31c.38-.3.49-.84.24-1.28l-4-6.93c-.25-.43-.77-.61-1.22-.43l-4.98 2.01c-1.03-.79-2.16-1.46-3.38-1.97L29 4.84c-.09-.47-.5-.84-1-.84h-8c-.5 0-.91.37-.99.84l-.75 5.3c-1.22.51-2.35 1.17-3.38 1.97L9.9 10.1c-.45-.17-.97 0-1.22.43l-4 6.93c-.25.43-.14.97.24 1.28l4.22 3.31C9.06 22.69 9 23.34 9 24s.06 1.31.14 1.95l-4.22 3.31c-.38.3-.49.84-.24 1.28l4 6.93c.25.43.77.61 1.22.43l4.98-2.01c1.03.79 2.16 1.46 3.38 1.97l.75 5.3c.08.47.49.84.99.84h8c.5 0 .91-.37.99-.84l.75-5.3c1.22-.51 2.35-1.17 3.38-1.97l4.98 2.01c.45.17.97 0 1.22-.43l4-6.93c.25-.43.14-.97-.24-1.28l-4.22-3.31zM24 31c-3.87 0-7-3.13-7-7s3.13-7 7-7 7 3.13 7 7-3.13 7-7 7z"/> </symbol><symbol viewBox="0 0 48 48" id="XPO.iconstorage"> <path d="M0 0h48v48H0z" fill="none"/> <path d="M4 40h40v-8H4v8zm4-6h4v4H8v-4zM4 8v8h40V8H4zm8 6H8v-4h4v4zM4 28h40v-8H4v8zm4-6h4v4H8v-4z"/> </symbol><symbol viewBox="0 0 48 48" id="XPO.icontab"> <path d="M0 0h48v48H0z" fill="none"/> <path d="M42 6H6c-2.21 0-4 1.79-4 4v28c0 2.21 1.79 4 4 4h36c2.21 0 4-1.79 4-4V10c0-2.21-1.79-4-4-4zm0 32H6V10h20v8h16v20z"/> </symbol><symbol viewBox="0 0 48 48" id="XPO.icontheme"> <path d="M0 0h48v48H0z" fill="none"/> <path d="M40 17.37V8h-9.37L24 1.37 17.37 8H8v9.37L1.37 24 8 30.63V40h9.37L24 46.63 30.63 40H40v-9.37L46.63 24 40 17.37zM24 36c-1.79 0-3.48-.4-5-1.1 4.13-1.9 7-6.06 7-10.9s-2.87-9-7-10.9c1.52-.7 3.21-1.1 5-1.1 6.63 0 12 5.37 12 12s-5.37 12-12 12z"/> </symbol><symbol viewBox="0 0 48 48" id="XPO.icontimer"> <path d="M0 0h48v48H0z" fill="none"/> <path d="M30 2H18v4h12V2zm-8 26h4V16h-4v12zm16.05-13.23l2.85-2.85c-.86-1.03-1.8-1.97-2.83-2.83l-2.85 2.85C32.15 9.48 28.24 8 23.99 8 14.04 8 6 16.06 6 26s8.04 18 17.99 18S42 35.94 42 26c0-4.25-1.48-8.15-3.95-11.23zM24 40c-7.73 0-14-6.27-14-14s6.27-14 14-14 14 6.27 14 14-6.27 14-14 14z"/> </symbol><symbol viewBox="0 0 48 48" id="XPO.icontranslate"> <path d="M0 0h48v48H0z" fill="none"/> <path d="M25.74 30.15l-5.08-5.02.06-.06c3.48-3.88 5.96-8.34 7.42-13.06H34V8H20V4h-4v4H2v3.98h22.34C22.99 15.84 20.88 19.5 18 22.7c-1.86-2.07-3.4-4.32-4.62-6.7h-4c1.46 3.26 3.46 6.34 5.96 9.12L5.17 35.17 8 38l10-10 6.22 6.22 1.52-4.07zM37 20h-4l-9 24h4l2.25-6h9.5L42 44h4l-9-24zm-5.25 14L35 25.33 38.25 34h-6.5z"/> </symbol><symbol viewBox="0 0 48 48" id="XPO.iconwifi"> <path fill="none" d="M0 0h48v48H0z"/> <path d="M2 18l4 4c9.94-9.94 26.06-9.94 36 0l4-4C33.85 5.85 14.15 5.85 2 18zm16 16l6 6 6-6c-3.31-3.31-8.69-3.31-12 0zm-8-8l4 4c5.52-5.52 14.48-5.52 20 0l4-4c-7.73-7.73-20.27-7.73-28 0z"/> </symbol></svg>